<?xml version="1.0" encoding="UTF-8"?>
<svg width="700pt" height="700pt" version="1.1" viewBox="0 0 700 700" xmlns="http://www.w3.org/2000/svg">
 <path d="m297.5 507.5c-2.8711-0.015625-5.6953-0.73438-8.2266-2.1016-2.793-1.4883-5.1328-3.7031-6.7656-6.418-1.6328-2.7109-2.5-5.8164-2.5078-8.9805v-52.5h-105c-23.207 0-45.461-9.2188-61.871-25.629s-25.629-38.664-25.629-61.871v-210c0-23.207 9.2188-45.461 25.629-61.871s38.664-25.629 61.871-25.629h350c23.207 0 45.461 9.2188 61.871 25.629s25.629 38.664 25.629 61.871v210c0 23.207-9.2188 45.461-25.629 61.871s-38.664 25.629-61.871 25.629h-117.25l-100.62 67.023c-2.8477 1.9141-6.1953 2.9492-9.625 2.9766zm-122.5-420c-13.926 0-27.277 5.5312-37.125 15.375-9.8438 9.8477-15.375 23.199-15.375 37.125v210c0 13.926 5.5312 27.277 15.375 37.125 9.8477 9.8438 23.199 15.375 37.125 15.375h122.5c4.6406 0 9.0938 1.8438 12.375 5.125s5.125 7.7344 5.125 12.375v37.273l77.875-52.5c2.9219-1.668 6.2656-2.457 9.625-2.2734h122.5c13.926 0 27.277-5.5312 37.125-15.375 9.8438-9.8477 15.375-23.199 15.375-37.125v-210c0-13.926-5.5312-27.277-15.375-37.125-9.8477-9.8438-23.199-15.375-37.125-15.375zm70 122.5c-9.2812 0-18.184 3.6875-24.75 10.25-6.5625 6.5664-10.25 15.469-10.25 24.75s3.6875 18.184 10.25 24.75c6.5664 6.5625 15.469 10.25 24.75 10.25s18.184-3.6875 24.75-10.25c6.5625-6.5664 10.25-15.469 10.25-24.75s-3.6875-18.184-10.25-24.75c-6.5664-6.5625-15.469-10.25-24.75-10.25zm105 0c-9.2812 0-18.184 3.6875-24.75 10.25-6.5625 6.5664-10.25 15.469-10.25 24.75s3.6875 18.184 10.25 24.75c6.5664 6.5625 15.469 10.25 24.75 10.25s18.184-3.6875 24.75-10.25c6.5625-6.5664 10.25-15.469 10.25-24.75s-3.6875-18.184-10.25-24.75c-6.5664-6.5625-15.469-10.25-24.75-10.25zm105 0c-9.2812 0-18.184 3.6875-24.75 10.25-6.5625 6.5664-10.25 15.469-10.25 24.75s3.6875 18.184 10.25 24.75c6.5664 6.5625 15.469 10.25 24.75 10.25s18.184-3.6875 24.75-10.25c6.5625-6.5664 10.25-15.469 10.25-24.75s-3.6875-18.184-10.25-24.75c-6.5664-6.5625-15.469-10.25-24.75-10.25z"/>
</svg>
