<?xml version="1.0" encoding="UTF-8"?>
<svg width="700pt" height="700pt" version="1.1" viewBox="0 0 700 700" xmlns="http://www.w3.org/2000/svg">
 <g>
  <path d="m490 186.67h-23.332v-23.336c0-41.68-22.238-80.195-58.336-101.04-36.094-20.84-80.57-20.84-116.66 0-36.098 20.84-58.336 59.355-58.336 101.04v23.336h-23.332c-6.1875 0-12.125 2.457-16.5 6.832s-6.832 10.312-6.832 16.5v181.16c-0.046875 13.012 3.5547 25.773 10.391 36.84 6.8398 11.07 16.641 20.004 28.293 25.785l114.21 57.098h0.003906c6.5742 3.2891 14.309 3.2891 20.883 0l114.21-57.098h0.003906c11.648-5.7852 21.445-14.719 28.277-25.789 6.832-11.066 10.43-23.828 10.383-36.836v-181.16c0-6.1875-2.457-12.125-6.832-16.5s-10.312-6.832-16.5-6.832zm-210-23.336c0-25.008 13.344-48.117 35-60.621 21.656-12.504 48.344-12.504 70 0 21.656 12.504 35 35.613 35 60.621v23.336h-140zm186.67 227.83c0.015625 4.3398-1.1836 8.5977-3.4648 12.289-2.2812 3.6914-5.5508 6.668-9.4414 8.5938l-103.76 51.871-103.76-51.895c-3.8867-1.9219-7.1562-4.8984-9.4375-8.5859-2.2812-3.6836-3.4805-7.9375-3.4688-12.273v-157.83h233.34z"/>
  <path d="m350 280c-6.1875 0-12.125 2.457-16.5 6.8359-4.375 4.375-6.832 10.309-6.832 16.496v46.668c0 8.3359 4.4453 16.039 11.664 20.207s16.117 4.168 23.336 0 11.664-11.871 11.664-20.207v-46.668c0-6.1875-2.457-12.121-6.832-16.496-4.375-4.3789-10.312-6.8359-16.5-6.8359z"/>
 </g>
</svg>
